<mxfile host="65bd71144e">
    <diagram id="CgBy0lFpVCReJwN6OkoY" name="Overview">
        <mxGraphModel dx="1370" dy="689" grid="1" gridSize="10" guides="1" tooltips="1" connect="1" arrows="1" fold="1" page="1" pageScale="1" pageWidth="850" pageHeight="1100" math="0" shadow="0">
            <root>
                <mxCell id="0"/>
                <mxCell id="1" parent="0"/>
                <mxCell id="VY4cwxb0uLbIG4QLXwEP-26" value="" style="rounded=1;whiteSpace=wrap;html=1;fillColor=none;strokeColor=#A9C4EB;dashed=1;" parent="1" vertex="1">
                    <mxGeometry x="290" y="140" width="370" height="180" as="geometry"/>
                </mxCell>
                <mxCell id="VY4cwxb0uLbIG4QLXwEP-6" value="" style="rounded=1;whiteSpace=wrap;html=1;" parent="1" vertex="1">
                    <mxGeometry x="507.5" y="390" width="125" height="210" as="geometry"/>
                </mxCell>
                <mxCell id="VY4cwxb0uLbIG4QLXwEP-2" value="Frontend" style="rounded=1;whiteSpace=wrap;html=1;" parent="1" vertex="1">
                    <mxGeometry y="390" width="90" height="90" as="geometry"/>
                </mxCell>
                <mxCell id="VY4cwxb0uLbIG4QLXwEP-3" value="&lt;div&gt;Triple store&lt;/div&gt;" style="rounded=1;whiteSpace=wrap;html=1;" parent="1" vertex="1">
                    <mxGeometry x="530" y="200" width="90" height="90" as="geometry"/>
                </mxCell>
                <mxCell id="VY4cwxb0uLbIG4QLXwEP-4" value="HyperGraphQL" style="rounded=1;whiteSpace=wrap;html=1;" parent="1" vertex="1">
                    <mxGeometry x="320" y="200" width="90" height="90" as="geometry"/>
                </mxCell>
                <mxCell id="VY4cwxb0uLbIG4QLXwEP-5" value="&lt;div&gt;Key Value store&lt;/div&gt;" style="rounded=1;whiteSpace=wrap;html=1;" parent="1" vertex="1">
                    <mxGeometry x="525" y="400" width="90" height="90" as="geometry"/>
                </mxCell>
                <mxCell id="VY4cwxb0uLbIG4QLXwEP-7" value="&lt;div&gt;Price data fetcher&lt;/div&gt;" style="rounded=1;whiteSpace=wrap;html=1;" parent="1" vertex="1">
                    <mxGeometry x="525" y="540" width="90" height="45" as="geometry"/>
                </mxCell>
                <mxCell id="VY4cwxb0uLbIG4QLXwEP-9" value="&lt;div&gt;Trusted data source&lt;/div&gt;" style="rounded=1;whiteSpace=wrap;html=1;" parent="1" vertex="1">
                    <mxGeometry x="720" y="510" width="120" height="120" as="geometry"/>
                </mxCell>
                <mxCell id="VY4cwxb0uLbIG4QLXwEP-11" value="" style="endArrow=classic;html=1;rounded=0;" parent="1" edge="1">
                    <mxGeometry width="50" height="50" relative="1" as="geometry">
                        <mxPoint x="640" y="564.5" as="sourcePoint"/>
                        <mxPoint x="710" y="564.5" as="targetPoint"/>
                    </mxGeometry>
                </mxCell>
                <mxCell id="VY4cwxb0uLbIG4QLXwEP-12" value="" style="endArrow=classic;html=1;rounded=0;" parent="1" edge="1">
                    <mxGeometry width="50" height="50" relative="1" as="geometry">
                        <mxPoint x="710" y="574.5" as="sourcePoint"/>
                        <mxPoint x="640" y="574.5" as="targetPoint"/>
                    </mxGeometry>
                </mxCell>
                <mxCell id="VY4cwxb0uLbIG4QLXwEP-13" value="" style="endArrow=classic;html=1;rounded=0;" parent="1" edge="1">
                    <mxGeometry width="50" height="50" relative="1" as="geometry">
                        <mxPoint x="569.5" y="530" as="sourcePoint"/>
                        <mxPoint x="569.5" y="500" as="targetPoint"/>
                    </mxGeometry>
                </mxCell>
                <mxCell id="VY4cwxb0uLbIG4QLXwEP-14" value="Data access layer" style="rounded=1;whiteSpace=wrap;html=1;" parent="1" vertex="1">
                    <mxGeometry x="320" y="390" width="90" height="90" as="geometry"/>
                </mxCell>
                <mxCell id="VY4cwxb0uLbIG4QLXwEP-15" value="" style="endArrow=classic;html=1;rounded=0;" parent="1" edge="1">
                    <mxGeometry width="50" height="50" relative="1" as="geometry">
                        <mxPoint x="500" y="460" as="sourcePoint"/>
                        <mxPoint x="420" y="610" as="targetPoint"/>
                    </mxGeometry>
                </mxCell>
                <mxCell id="VY4cwxb0uLbIG4QLXwEP-16" value="" style="endArrow=classic;html=1;rounded=0;" parent="1" edge="1">
                    <mxGeometry width="50" height="50" relative="1" as="geometry">
                        <mxPoint x="435" y="240" as="sourcePoint"/>
                        <mxPoint x="505" y="240" as="targetPoint"/>
                    </mxGeometry>
                </mxCell>
                <mxCell id="VY4cwxb0uLbIG4QLXwEP-17" value="" style="endArrow=classic;html=1;rounded=0;" parent="1" edge="1">
                    <mxGeometry width="50" height="50" relative="1" as="geometry">
                        <mxPoint x="505" y="250" as="sourcePoint"/>
                        <mxPoint x="435" y="250" as="targetPoint"/>
                    </mxGeometry>
                </mxCell>
                <mxCell id="VY4cwxb0uLbIG4QLXwEP-18" value="&lt;div&gt;Control plane&lt;/div&gt;" style="rounded=1;whiteSpace=wrap;html=1;" parent="1" vertex="1">
                    <mxGeometry x="140" y="390" width="90" height="90" as="geometry"/>
                </mxCell>
                <mxCell id="VY4cwxb0uLbIG4QLXwEP-19" value="&lt;div&gt;Websocket server&lt;/div&gt;" style="rounded=1;whiteSpace=wrap;html=1;" parent="1" vertex="1">
                    <mxGeometry x="320" y="580" width="90" height="90" as="geometry"/>
                </mxCell>
                <mxCell id="VY4cwxb0uLbIG4QLXwEP-20" value="" style="endArrow=classic;html=1;rounded=0;" parent="1" edge="1">
                    <mxGeometry width="50" height="50" relative="1" as="geometry">
                        <mxPoint x="495" y="434.5" as="sourcePoint"/>
                        <mxPoint x="425" y="434.5" as="targetPoint"/>
                    </mxGeometry>
                </mxCell>
                <mxCell id="VY4cwxb0uLbIG4QLXwEP-21" value="" style="endArrow=classic;startArrow=classic;html=1;rounded=0;" parent="1" edge="1">
                    <mxGeometry width="50" height="50" relative="1" as="geometry">
                        <mxPoint x="45" y="500" as="sourcePoint"/>
                        <mxPoint x="270" y="630" as="targetPoint"/>
                        <Array as="points">
                            <mxPoint x="45" y="630"/>
                        </Array>
                    </mxGeometry>
                </mxCell>
                <mxCell id="VY4cwxb0uLbIG4QLXwEP-22" value="" style="endArrow=classic;html=1;rounded=0;" parent="1" edge="1">
                    <mxGeometry width="50" height="50" relative="1" as="geometry">
                        <mxPoint x="310" y="300" as="sourcePoint"/>
                        <mxPoint x="240" y="430" as="targetPoint"/>
                    </mxGeometry>
                </mxCell>
                <mxCell id="VY4cwxb0uLbIG4QLXwEP-23" value="" style="endArrow=classic;html=1;rounded=0;" parent="1" edge="1">
                    <mxGeometry width="50" height="50" relative="1" as="geometry">
                        <mxPoint x="310" y="434.5" as="sourcePoint"/>
                        <mxPoint x="240" y="434.5" as="targetPoint"/>
                    </mxGeometry>
                </mxCell>
                <mxCell id="VY4cwxb0uLbIG4QLXwEP-24" value="" style="endArrow=classic;html=1;rounded=0;" parent="1" edge="1">
                    <mxGeometry width="50" height="50" relative="1" as="geometry">
                        <mxPoint x="130" y="435" as="sourcePoint"/>
                        <mxPoint x="100" y="434.5" as="targetPoint"/>
                    </mxGeometry>
                </mxCell>
                <mxCell id="VY4cwxb0uLbIG4QLXwEP-27" value="&lt;b&gt;CryptoMetadataService&lt;/b&gt;" style="text;html=1;strokeColor=none;fillColor=none;align=center;verticalAlign=middle;whiteSpace=wrap;rounded=0;dashed=1;" parent="1" vertex="1">
                    <mxGeometry x="330" y="150" width="80" height="30" as="geometry"/>
                </mxCell>
                <mxCell id="VY4cwxb0uLbIG4QLXwEP-28" value="" style="rounded=1;whiteSpace=wrap;html=1;fillColor=none;strokeColor=#A9C4EB;dashed=1;" parent="1" vertex="1">
                    <mxGeometry x="480" y="350" width="370" height="310" as="geometry"/>
                </mxCell>
                <mxCell id="VY4cwxb0uLbIG4QLXwEP-29" value="&lt;b&gt;PriceCatalogClientService&lt;/b&gt;" style="text;html=1;strokeColor=none;fillColor=none;align=center;verticalAlign=middle;whiteSpace=wrap;rounded=0;dashed=1;" parent="1" vertex="1">
                    <mxGeometry x="340" y="360" width="80" height="30" as="geometry"/>
                </mxCell>
                <mxCell id="VY4cwxb0uLbIG4QLXwEP-30" value="" style="rounded=1;whiteSpace=wrap;html=1;fillColor=none;strokeColor=#A9C4EB;dashed=1;" parent="1" vertex="1">
                    <mxGeometry x="290" y="350" width="180" height="160" as="geometry"/>
                </mxCell>
                <mxCell id="VY4cwxb0uLbIG4QLXwEP-31" value="&lt;b&gt;CoinPriceCatalogService&lt;/b&gt;" style="text;html=1;strokeColor=none;fillColor=none;align=center;verticalAlign=middle;whiteSpace=wrap;rounded=0;dashed=1;" parent="1" vertex="1">
                    <mxGeometry x="530" y="360" width="80" height="30" as="geometry"/>
                </mxCell>
                <mxCell id="VY4cwxb0uLbIG4QLXwEP-32" value="" style="rounded=1;whiteSpace=wrap;html=1;fillColor=none;strokeColor=#A9C4EB;dashed=1;" parent="1" vertex="1">
                    <mxGeometry x="290" y="540" width="180" height="160" as="geometry"/>
                </mxCell>
                <mxCell id="VY4cwxb0uLbIG4QLXwEP-33" value="&lt;b&gt;PriceNotifierService&lt;/b&gt;" style="text;html=1;strokeColor=none;fillColor=none;align=center;verticalAlign=middle;whiteSpace=wrap;rounded=0;dashed=1;" parent="1" vertex="1">
                    <mxGeometry x="320" y="547.5" width="80" height="30" as="geometry"/>
                </mxCell>
            </root>
        </mxGraphModel>
    </diagram>
</mxfile>